M48
; DRILL file {KiCad (7.0.0)} date Sun May  7 18:55:20 2023
; FORMAT={-:-/ absolute / inch / decimal}
; #@! TF.CreationDate,2023-05-07T18:55:20+02:00
; #@! TF.GenerationSoftware,Kicad,Pcbnew,(7.0.0)
; #@! TF.FileFunction,Plated,1,2,PTH
FMAT,2
INCH
; #@! TA.AperFunction,Plated,PTH,ViaDrill
T1C0.0315
; #@! TA.AperFunction,Plated,PTH,ComponentDrill
T2C0.0315
; #@! TA.AperFunction,Plated,PTH,ComponentDrill
T3C0.0394
; #@! TA.AperFunction,Plated,PTH,ComponentDrill
T4C0.0512
; #@! TA.AperFunction,Plated,PTH,ComponentDrill
T5C0.0709
%
G90
G05
T1
X3.2692Y-1.9084
X3.3282Y-2.0068
X3.4857Y-2.3218
X3.9385Y-1.8296
X3.9778Y-2.1052
X4.235Y-2.1052
X4.6865Y-2.0068
X4.7456Y-1.9084
X4.905Y-2.3218
X4.9227Y-1.8296
T2
X1.895Y-2.515
X1.895Y-2.615
X1.895Y-2.715
X1.895Y-2.815
X1.895Y-2.915
X1.895Y-3.015
X1.955Y-1.715
X1.955Y-1.815
X1.955Y-1.915
X1.955Y-2.015
X1.955Y-2.115
X1.955Y-2.215
X2.2049Y-2.595
X2.2049Y-2.87
X2.3799Y-2.595
X2.3799Y-2.87
X2.565Y-2.405
X2.565Y-2.905
X2.7255Y-2.8266
X2.7255Y-3.0234
X2.875Y-2.615
X2.875Y-2.915
X2.955Y-1.815
X2.955Y-1.915
X2.955Y-2.015
X2.955Y-2.115
X2.975Y-2.615
X2.975Y-2.915
X3.075Y-2.615
X3.075Y-2.915
X3.175Y-2.615
X3.175Y-2.915
X3.2166Y-3.625
X3.275Y-2.615
X3.275Y-2.915
X3.315Y-3.625
X3.375Y-2.615
X3.375Y-2.915
X3.475Y-2.615
X3.475Y-2.915
X3.575Y-2.615
X3.575Y-2.915
X3.6093Y-3.195
X3.675Y-2.615
X3.675Y-2.915
X3.735Y-1.665
X3.775Y-2.615
X3.775Y-2.915
X3.8015Y-3.195
X3.835Y-1.665
X3.875Y-2.615
X3.875Y-2.915
X3.935Y-1.665
X3.975Y-2.615
X3.975Y-2.915
X4.035Y-1.665
X4.075Y-2.615
X4.075Y-2.915
X4.135Y-1.665
X4.175Y-2.615
X4.175Y-2.915
X4.235Y-1.665
X4.335Y-1.665
X4.3538Y-2.8895
X4.3538Y-3.795
X4.435Y-1.665
X4.4719Y-2.8895
X4.7869Y-2.8895
X4.905Y-2.8895
X4.905Y-3.795
T3
X2.8558Y-2.435
X2.975Y-2.435
X3.565Y-3.4574
X3.565Y-3.7526
X3.805Y-3.4574
X3.805Y-3.7526
X5.035Y-2.405
X5.0408Y-2.2037
T4
X2.1366Y-3.2529
X2.1366Y-3.745
X2.3334Y-3.2529
X2.3334Y-3.745
X2.7066Y-3.2593
X2.7066Y-3.7515
X2.9034Y-3.2593
X2.9034Y-3.7515
T5
X2.0866Y-3.495
X2.3866Y-3.495
X2.6534Y-3.5093
X2.9534Y-3.5093
T0
M30
