%TF.GenerationSoftware,KiCad,Pcbnew,(7.0.0)*%
%TF.CreationDate,2023-05-07T18:54:43+02:00*%
%TF.ProjectId,balance_ruche,62616c61-6e63-4655-9f72-756368652e6b,V1.0*%
%TF.SameCoordinates,Original*%
%TF.FileFunction,Soldermask,Bot*%
%TF.FilePolarity,Negative*%
%FSLAX46Y46*%
G04 Gerber Fmt 4.6, Leading zero omitted, Abs format (unit mm)*
G04 Created by KiCad (PCBNEW (7.0.0)) date 2023-05-07 18:54:43*
%MOMM*%
%LPD*%
G01*
G04 APERTURE LIST*
G04 Aperture macros list*
%AMRoundRect*
0 Rectangle with rounded corners*
0 $1 Rounding radius*
0 $2 $3 $4 $5 $6 $7 $8 $9 X,Y pos of 4 corners*
0 Add a 4 corners polygon primitive as box body*
4,1,4,$2,$3,$4,$5,$6,$7,$8,$9,$2,$3,0*
0 Add four circle primitives for the rounded corners*
1,1,$1+$1,$2,$3*
1,1,$1+$1,$4,$5*
1,1,$1+$1,$6,$7*
1,1,$1+$1,$8,$9*
0 Add four rect primitives between the rounded corners*
20,1,$1+$1,$2,$3,$4,$5,0*
20,1,$1+$1,$4,$5,$6,$7,0*
20,1,$1+$1,$6,$7,$8,$9,0*
20,1,$1+$1,$8,$9,$2,$3,0*%
G04 Aperture macros list end*
%ADD10R,2.000000X2.000000*%
%ADD11C,1.600000*%
%ADD12O,1.600000X1.600000*%
%ADD13R,1.600000X1.600000*%
%ADD14O,3.000000X1.800000*%
%ADD15RoundRect,0.500000X-0.500000X1.000000X-0.500000X-1.000000X0.500000X-1.000000X0.500000X1.000000X0*%
%ADD16C,2.000000*%
%ADD17O,3.000000X1.524000*%
%ADD18O,1.800000X3.000000*%
%ADD19O,2.000000X3.048000*%
%ADD20O,1.800000X2.800000*%
%ADD21R,1.800000X2.800000*%
%ADD22C,1.500000*%
G04 APERTURE END LIST*
D10*
%TO.C,TP4*%
X127888999Y-61086999D03*
%TD*%
%TO.C,TP3*%
X128036999Y-55972999D03*
%TD*%
%TO.C,TP2*%
X72536999Y-61848999D03*
%TD*%
%TO.C,TP1*%
X75564999Y-61848999D03*
%TD*%
D11*
%TO.C,C3*%
X69227000Y-71795000D03*
X69227000Y-76795000D03*
%TD*%
%TO.C,R1*%
X65151000Y-61087000D03*
D12*
X65150999Y-73786999D03*
%TD*%
D13*
%TO.C,C4*%
X81700999Y-92074999D03*
D11*
X84201000Y-92075000D03*
%TD*%
D14*
%TO.C,U2*%
X48132999Y-76580999D03*
X48132999Y-74040999D03*
X48132999Y-71500999D03*
X48132999Y-68960999D03*
X48132999Y-66420999D03*
X48132999Y-63880999D03*
%TD*%
D15*
%TO.C,SW1*%
X60449500Y-65913000D03*
X56004500Y-65913000D03*
X60449500Y-72898000D03*
X56004500Y-72898000D03*
%TD*%
D16*
%TO.C,C2*%
X90551000Y-95317000D03*
X90551000Y-87817000D03*
%TD*%
%TO.C,C1*%
X96647000Y-87817000D03*
X96647000Y-95317000D03*
%TD*%
D17*
%TO.C,U4*%
X49656999Y-43560999D03*
X49656999Y-46100999D03*
X49656999Y-48640999D03*
X49656999Y-51180999D03*
X49656999Y-53720999D03*
X49656999Y-56260999D03*
X75056999Y-53720999D03*
X75056999Y-51180999D03*
X75056999Y-48640999D03*
X75056999Y-46100999D03*
%TD*%
D18*
%TO.C,U3*%
X112648999Y-42290999D03*
X110108999Y-42290999D03*
X107568999Y-42290999D03*
X105028999Y-42290999D03*
X102488999Y-42290999D03*
X99948999Y-42290999D03*
X97408999Y-42290999D03*
X94868999Y-42290999D03*
%TD*%
D16*
%TO.C,SW2*%
X52999000Y-88773000D03*
X60619000Y-88773000D03*
D19*
X54268999Y-95122999D03*
X54268999Y-82622999D03*
X59268999Y-95122999D03*
X59268999Y-82622999D03*
%TD*%
D16*
%TO.C,SW3*%
X75017000Y-89137000D03*
X67397000Y-89137000D03*
D19*
X73746999Y-82786999D03*
X73746999Y-95286999D03*
X68746999Y-82786999D03*
X68746999Y-95286999D03*
%TD*%
D20*
%TO.C,U1*%
X73024999Y-66420999D03*
X75564999Y-66420999D03*
X78104999Y-66420999D03*
X80644999Y-66420999D03*
X83184999Y-66420999D03*
X85724999Y-66420999D03*
X88264999Y-66420999D03*
X90804999Y-66420999D03*
X93344999Y-66420999D03*
X95884999Y-66420999D03*
X98424999Y-66420999D03*
X100964999Y-66420999D03*
X103504999Y-66420999D03*
X106044999Y-66420999D03*
X106044999Y-74040999D03*
X103504999Y-74040999D03*
X100964999Y-74040999D03*
X98424999Y-74040999D03*
X95884999Y-74040999D03*
X93344999Y-74040999D03*
X90804999Y-74040999D03*
X88264999Y-74040999D03*
X85724999Y-74040999D03*
X83184999Y-74040999D03*
X80644999Y-74040999D03*
X78104999Y-74040999D03*
X75564999Y-74040999D03*
D21*
X73024999Y-74040999D03*
%TD*%
D18*
%TO.C,U5*%
X124586999Y-73392999D03*
X121586999Y-73392999D03*
X113586999Y-73392999D03*
X110586999Y-73392999D03*
X110586999Y-96392999D03*
X124586999Y-96392999D03*
%TD*%
D22*
%TO.C,Y1*%
X96557000Y-81153000D03*
X91677000Y-81153000D03*
%TD*%
M02*
