%TF.GenerationSoftware,KiCad,Pcbnew,(7.0.0)*%
%TF.CreationDate,2023-05-07T18:54:43+02:00*%
%TF.ProjectId,balance_ruche,62616c61-6e63-4655-9f72-756368652e6b,V1.0*%
%TF.SameCoordinates,Original*%
%TF.FileFunction,Copper,L1,Top*%
%TF.FilePolarity,Positive*%
%FSLAX46Y46*%
G04 Gerber Fmt 4.6, Leading zero omitted, Abs format (unit mm)*
G04 Created by KiCad (PCBNEW (7.0.0)) date 2023-05-07 18:54:43*
%MOMM*%
%LPD*%
G01*
G04 APERTURE LIST*
G04 Aperture macros list*
%AMRoundRect*
0 Rectangle with rounded corners*
0 $1 Rounding radius*
0 $2 $3 $4 $5 $6 $7 $8 $9 X,Y pos of 4 corners*
0 Add a 4 corners polygon primitive as box body*
4,1,4,$2,$3,$4,$5,$6,$7,$8,$9,$2,$3,0*
0 Add four circle primitives for the rounded corners*
1,1,$1+$1,$2,$3*
1,1,$1+$1,$4,$5*
1,1,$1+$1,$6,$7*
1,1,$1+$1,$8,$9*
0 Add four rect primitives between the rounded corners*
20,1,$1+$1,$2,$3,$4,$5,0*
20,1,$1+$1,$4,$5,$6,$7,0*
20,1,$1+$1,$6,$7,$8,$9,0*
20,1,$1+$1,$8,$9,$2,$3,0*%
G04 Aperture macros list end*
%TA.AperFunction,ComponentPad*%
%ADD10R,2.000000X2.000000*%
%TD*%
%TA.AperFunction,ComponentPad*%
%ADD11C,1.600000*%
%TD*%
%TA.AperFunction,ComponentPad*%
%ADD12O,1.600000X1.600000*%
%TD*%
%TA.AperFunction,ComponentPad*%
%ADD13R,1.600000X1.600000*%
%TD*%
%TA.AperFunction,ComponentPad*%
%ADD14O,3.000000X1.800000*%
%TD*%
%TA.AperFunction,ComponentPad*%
%ADD15RoundRect,0.500000X-0.500000X1.000000X-0.500000X-1.000000X0.500000X-1.000000X0.500000X1.000000X0*%
%TD*%
%TA.AperFunction,ComponentPad*%
%ADD16C,2.000000*%
%TD*%
%TA.AperFunction,ComponentPad*%
%ADD17O,3.000000X1.524000*%
%TD*%
%TA.AperFunction,ComponentPad*%
%ADD18O,1.800000X3.000000*%
%TD*%
%TA.AperFunction,ComponentPad*%
%ADD19O,2.000000X3.048000*%
%TD*%
%TA.AperFunction,ComponentPad*%
%ADD20O,1.800000X2.800000*%
%TD*%
%TA.AperFunction,ComponentPad*%
%ADD21R,1.800000X2.800000*%
%TD*%
%TA.AperFunction,ComponentPad*%
%ADD22C,1.500000*%
%TD*%
%TA.AperFunction,ViaPad*%
%ADD23C,2.000000*%
%TD*%
%TA.AperFunction,Conductor*%
%ADD24C,1.000000*%
%TD*%
G04 APERTURE END LIST*
D10*
%TO.P,TP4,1,1*%
%TO.N,GND*%
X127888999Y-61086999D03*
%TD*%
%TO.P,TP3,1,1*%
%TO.N,+3V8*%
X128036999Y-55972999D03*
%TD*%
%TO.P,TP2,1,1*%
%TO.N,Net-(U1-PC5)*%
X72536999Y-61848999D03*
%TD*%
%TO.P,TP1,1,1*%
%TO.N,Net-(U1-PC4)*%
X75564999Y-61848999D03*
%TD*%
D11*
%TO.P,C3,1*%
%TO.N,/RESET*%
X69227000Y-71795000D03*
%TO.P,C3,2*%
%TO.N,Net-(U2-DTR)*%
X69227000Y-76795000D03*
%TD*%
%TO.P,R1,1*%
%TO.N,+3V8*%
X65151000Y-61087000D03*
D12*
%TO.P,R1,2*%
%TO.N,/RESET*%
X65150999Y-73786999D03*
%TD*%
D13*
%TO.P,C4,1*%
%TO.N,+3V8*%
X81700999Y-92074999D03*
D11*
%TO.P,C4,2*%
%TO.N,GND*%
X84201000Y-92075000D03*
%TD*%
D14*
%TO.P,U2,1,DTR*%
%TO.N,Net-(U2-DTR)*%
X48132999Y-76580999D03*
%TO.P,U2,2,RX*%
%TO.N,/PD1*%
X48132999Y-74040999D03*
%TO.P,U2,3,TX*%
%TO.N,/PD0*%
X48132999Y-71500999D03*
%TO.P,U2,4,Vcc*%
%TO.N,+3V8*%
X48132999Y-68960999D03*
%TO.P,U2,5,CTS*%
%TO.N,unconnected-(U2-CTS-Pad5)*%
X48132999Y-66420999D03*
%TO.P,U2,6,GND*%
%TO.N,GND*%
X48132999Y-63880999D03*
%TD*%
D15*
%TO.P,SW1,1*%
%TO.N,GND*%
X60449500Y-65913000D03*
%TO.P,SW1,2*%
X56004500Y-65913000D03*
%TO.P,SW1,3*%
%TO.N,/RESET*%
X60449500Y-72898000D03*
%TO.P,SW1,4*%
X56004500Y-72898000D03*
%TD*%
D16*
%TO.P,C2,1*%
%TO.N,GND*%
X90551000Y-95317000D03*
%TO.P,C2,2*%
%TO.N,Net-(U1-XTAL1{slash}PB6)*%
X90551000Y-87817000D03*
%TD*%
%TO.P,C1,1*%
%TO.N,Net-(U1-XTAL2{slash}PB7)*%
X96647000Y-87817000D03*
%TO.P,C1,2*%
%TO.N,GND*%
X96647000Y-95317000D03*
%TD*%
D17*
%TO.P,U4,1,E+*%
%TO.N,unconnected-(U4-E+-Pad1)*%
X49656999Y-43560999D03*
%TO.P,U4,2,E-*%
%TO.N,unconnected-(U4-E--Pad2)*%
X49656999Y-46100999D03*
%TO.P,U4,3,A-*%
%TO.N,unconnected-(U4-A--Pad3)*%
X49656999Y-48640999D03*
%TO.P,U4,4,A+*%
%TO.N,unconnected-(U4-A+-Pad4)*%
X49656999Y-51180999D03*
%TO.P,U4,5,B-*%
%TO.N,unconnected-(U4-B--Pad5)*%
X49656999Y-53720999D03*
%TO.P,U4,6,B+*%
%TO.N,unconnected-(U4-B+-Pad6)*%
X49656999Y-56260999D03*
%TO.P,U4,7,VCC*%
%TO.N,+3V8*%
X75056999Y-53720999D03*
%TO.P,U4,8,SCK*%
%TO.N,/SCK*%
X75056999Y-51180999D03*
%TO.P,U4,9,DT*%
%TO.N,/DT*%
X75056999Y-48640999D03*
%TO.P,U4,10,GND*%
%TO.N,GND*%
X75056999Y-46100999D03*
%TD*%
D18*
%TO.P,U3,1,RST*%
%TO.N,/RST*%
X112648999Y-42290999D03*
%TO.P,U3,2,CE*%
%TO.N,/CE*%
X110108999Y-42290999D03*
%TO.P,U3,3,D0*%
%TO.N,/D0*%
X107568999Y-42290999D03*
%TO.P,U3,4,DIN*%
%TO.N,/DIN*%
X105028999Y-42290999D03*
%TO.P,U3,5,CLK*%
%TO.N,/CLK*%
X102488999Y-42290999D03*
%TO.P,U3,6,VCC*%
%TO.N,+3V8*%
X99948999Y-42290999D03*
%TO.P,U3,7,DL*%
%TO.N,/DL*%
X97408999Y-42290999D03*
%TO.P,U3,8,GND*%
%TO.N,GND*%
X94868999Y-42290999D03*
%TD*%
D16*
%TO.P,SW2,*%
%TO.N,*%
X52999000Y-88773000D03*
X60619000Y-88773000D03*
D19*
%TO.P,SW2,1*%
%TO.N,GND*%
X54268999Y-95122999D03*
%TO.P,SW2,2*%
X54268999Y-82622999D03*
%TO.P,SW2,3*%
%TO.N,/INT1*%
X59268999Y-95122999D03*
%TO.P,SW2,4*%
X59268999Y-82622999D03*
%TD*%
D16*
%TO.P,SW3,*%
%TO.N,*%
X75017000Y-89137000D03*
X67397000Y-89137000D03*
D19*
%TO.P,SW3,1*%
%TO.N,GND*%
X73746999Y-82786999D03*
%TO.P,SW3,2*%
X73746999Y-95286999D03*
%TO.P,SW3,3*%
%TO.N,/INT2*%
X68746999Y-82786999D03*
%TO.P,SW3,4*%
X68746999Y-95286999D03*
%TD*%
D20*
%TO.P,U1,28,PC5*%
%TO.N,Net-(U1-PC5)*%
X73024999Y-66420999D03*
%TO.P,U1,27,PC4*%
%TO.N,Net-(U1-PC4)*%
X75564999Y-66420999D03*
%TO.P,U1,26,PC3*%
%TO.N,unconnected-(U1-PC3-Pad26)*%
X78104999Y-66420999D03*
%TO.P,U1,25,PC2*%
%TO.N,unconnected-(U1-PC2-Pad25)*%
X80644999Y-66420999D03*
%TO.P,U1,24,PC1*%
%TO.N,unconnected-(U1-PC1-Pad24)*%
X83184999Y-66420999D03*
%TO.P,U1,23,PC0*%
%TO.N,unconnected-(U1-PC0-Pad23)*%
X85724999Y-66420999D03*
%TO.P,U1,22,GND*%
%TO.N,GND*%
X88264999Y-66420999D03*
%TO.P,U1,21,AREF*%
%TO.N,unconnected-(U1-AREF-Pad21)*%
X90804999Y-66420999D03*
%TO.P,U1,20,AVCC*%
%TO.N,+3V8*%
X93344999Y-66420999D03*
%TO.P,U1,19,PB5*%
%TO.N,/CLK*%
X95884999Y-66420999D03*
%TO.P,U1,18,PB4*%
%TO.N,/D0*%
X98424999Y-66420999D03*
%TO.P,U1,17,PB3*%
%TO.N,/DIN*%
X100964999Y-66420999D03*
%TO.P,U1,16,PB2*%
%TO.N,/CE*%
X103504999Y-66420999D03*
%TO.P,U1,15,PB1*%
%TO.N,/RST*%
X106044999Y-66420999D03*
%TO.P,U1,14,PB0*%
%TO.N,/DL*%
X106044999Y-74040999D03*
%TO.P,U1,13,PD7*%
%TO.N,/SCK*%
X103504999Y-74040999D03*
%TO.P,U1,12,PD6*%
%TO.N,/DT*%
X100964999Y-74040999D03*
%TO.P,U1,11,PD5*%
%TO.N,unconnected-(U1-PD5-Pad11)*%
X98424999Y-74040999D03*
%TO.P,U1,10,XTAL2/PB7*%
%TO.N,Net-(U1-XTAL2{slash}PB7)*%
X95884999Y-74040999D03*
%TO.P,U1,9,XTAL1/PB6*%
%TO.N,Net-(U1-XTAL1{slash}PB6)*%
X93344999Y-74040999D03*
%TO.P,U1,8,GND*%
%TO.N,GND*%
X90804999Y-74040999D03*
%TO.P,U1,7,VCC*%
%TO.N,+3V8*%
X88264999Y-74040999D03*
%TO.P,U1,6,PD4*%
%TO.N,unconnected-(U1-PD4-Pad6)*%
X85724999Y-74040999D03*
%TO.P,U1,5,PD3*%
%TO.N,/INT2*%
X83184999Y-74040999D03*
%TO.P,U1,4,PD2*%
%TO.N,/INT1*%
X80644999Y-74040999D03*
%TO.P,U1,3,PD1*%
%TO.N,/PD1*%
X78104999Y-74040999D03*
%TO.P,U1,2,PD0*%
%TO.N,/PD0*%
X75564999Y-74040999D03*
D21*
%TO.P,U1,1,~{RESET}/PC6*%
%TO.N,/RESET*%
X73024999Y-74040999D03*
%TD*%
D18*
%TO.P,U5,1,OUT-*%
%TO.N,GND*%
X124586999Y-73392999D03*
%TO.P,U5,2,B-*%
%TO.N,unconnected-(U5-B--Pad2)*%
X121586999Y-73392999D03*
%TO.P,U5,3,B+*%
%TO.N,unconnected-(U5-B+-Pad3)*%
X113586999Y-73392999D03*
%TO.P,U5,4,OUT+*%
%TO.N,+3V8*%
X110586999Y-73392999D03*
%TO.P,U5,5,+*%
%TO.N,unconnected-(U5-+-Pad5)*%
X110586999Y-96392999D03*
%TO.P,U5,6,-*%
%TO.N,unconnected-(U5---Pad6)*%
X124586999Y-96392999D03*
%TD*%
D22*
%TO.P,Y1,1,1*%
%TO.N,Net-(U1-XTAL2{slash}PB7)*%
X96557000Y-81153000D03*
%TO.P,Y1,2,2*%
%TO.N,Net-(U1-XTAL1{slash}PB6)*%
X91677000Y-81153000D03*
%TD*%
D23*
%TO.N,GND*%
X124587000Y-58973000D03*
X88537000Y-58973000D03*
%TO.N,/D0*%
X107569000Y-53473000D03*
X101037000Y-53473000D03*
%TO.N,/DT*%
X83037000Y-48473000D03*
X120537000Y-48473000D03*
%TO.N,/SCK*%
X84537000Y-50973000D03*
X119037000Y-50973000D03*
%TO.N,+3V8*%
X125037000Y-46473000D03*
X100037000Y-46473000D03*
%TD*%
D24*
%TO.N,GND*%
X88537000Y-58973000D02*
X124587000Y-58973000D01*
%TO.N,/DT*%
X120537000Y-48473000D02*
X83037000Y-48473000D01*
%TO.N,/D0*%
X107569000Y-53473000D02*
X101037000Y-53473000D01*
%TO.N,/SCK*%
X119037000Y-50973000D02*
X84537000Y-50973000D01*
%TO.N,+3V8*%
X125037000Y-46473000D02*
X100037000Y-46473000D01*
%TD*%
M02*
